<svg width="143" height="24" viewBox="0 0 143 24" fill="none" xmlns="http://www.w3.org/2000/svg">
<path d="M125.089 24V0H138.804V3.42857H128.518V10.2857H138.804V13.7143H135.375V17.1429H131.946V13.7143H128.518V24H125.089ZM138.804 10.2857V3.42857H142.232V10.2857H138.804ZM135.375 20.5714V17.1429H138.804V20.5714H135.375ZM138.804 24V20.5714H142.232V24H138.804Z" fill="white"/>
<path d="M121.674 0V3.42857H107.96V10.2857H118.246V13.7143H107.96V20.5714H121.674V24H104.531V0H121.674Z" fill="white"/>
<path d="M83.9732 24V0H97.6875V3.42857H87.4018V10.2857H97.6875V13.7143H87.4018V20.5714H97.6875V24H83.9732ZM97.6875 10.2857V3.42857H101.116V10.2857H97.6875ZM97.6875 20.5714V13.7143H101.116V20.5714H97.6875Z" fill="white"/>
<path d="M63.4152 10.2857V0H66.8438V10.2857H63.4152ZM77.1295 10.2857V0H80.558V10.2857H77.1295ZM66.8438 13.7143V10.2857H70.2723V13.7143H66.8438ZM73.7009 13.7143V10.2857H77.1295V13.7143H73.7009ZM70.2723 24V13.7143H73.7009V24H70.2723Z" fill="white"/>
<path d="M46.2857 20.5714H42.8571V3.42857H46.2857V0H56.5714V3.42857H60V6.85714H56.5714V3.42857H46.2857V20.5714H56.5714V17.1429H60V20.5714H56.5714V24H46.2857V20.5714Z" fill="white"/>
<path d="M30.8438 0V3.42857H27.4152V20.5714H30.8438V24H20.558V20.5714H23.9866V3.42857H20.558V0H30.8438Z" fill="white"/>
<path d="M0 24V6.85714H3.42857V3.42857H6.85714V0H10.2857V3.42857H13.7143V6.85714H17.1429V24H13.7143V17.1429H3.42857V24H0ZM3.42857 6.85714V13.7143H13.7143V6.85714H10.2857V3.42857H6.85714V6.85714H3.42857Z" fill="white"/>
</svg>
